<?xml version="1.0" standalone="no"?>
<!DOCTYPE svg PUBLIC "-//W3C//DTD SVG 20010904//EN"
 "http://www.w3.org/TR/2001/REC-SVG-20010904/DTD/svg10.dtd">
<svg version="1.0" xmlns="http://www.w3.org/2000/svg"
 width="1063.000000pt" height="591.000000pt" viewBox="0 0 1063.000000 591.000000"
 preserveAspectRatio="xMidYMid meet">

<g transform="translate(0.000000,591.000000) scale(0.100000,-0.100000)"
fill="#000000" stroke="none">
<path d="M0 3715 l0 -2025 89 0 89 0 7 32 c15 69 68 190 116 264 104 159 260
276 441 332 63 20 91 21 448 21 357 0 385 -1 448 -21 264 -81 476 -299 547
-563 l18 -65 718 0 719 0 0 330 0 330 -665 0 -665 0 0 110 c0 103 -1 110 -20
110 -11 0 -20 -4 -20 -10 0 -5 -14 -10 -31 -10 -29 0 -31 2 -26 28 3 15 15 87
28 160 21 125 24 132 46 132 22 0 23 3 23 80 l0 80 -70 0 c-38 0 -70 4 -70 8
0 4 32 19 70 32 l70 24 0 61 c-1 38 -7 72 -19 94 l-18 34 -25 -28 c-32 -34
-62 -30 -66 8 -2 16 3 36 12 46 31 35 48 92 41 143 -8 53 4 78 36 78 10 0 23
-8 28 -17 8 -14 10 -9 11 25 l0 42 -225 0 -225 0 0 -430 0 -430 -790 0 -790 0
0 1405 0 1405 230 0 230 0 0 105 0 105 -370 0 -370 0 0 -2025z"/>
<path d="M1640 5635 l0 -105 110 0 110 0 0 -305 0 -305 225 0 225 0 0 410 0
410 -335 0 -335 0 0 -105z"/>
<path d="M2296 2692 c-4 -29 -5 -56 -2 -59 12 -13 17 6 14 58 l-3 54 -9 -53z"/>
<path d="M7360 1755 l0 -65 1635 0 1635 0 0 65 0 65 -1635 0 -1635 0 0 -65z"/>
</g>
</svg>
