<?xml version="1.0" encoding="UTF-8"?>
<!DOCTYPE svg PUBLIC "-//W3C//DTD SVG 1.1//EN" "http://www.w3.org/Graphics/SVG/1.1/DTD/svg11.dtd">
<!-- Creator: CorelDRAW 2017 -->
<svg xmlns="http://www.w3.org/2000/svg" xml:space="preserve" width="144.751mm" height="81.251mm" version="1.1" style="shape-rendering:geometricPrecision; text-rendering:geometricPrecision; image-rendering:optimizeQuality; fill-rule:evenodd; clip-rule:evenodd"
viewBox="0 0 14475.08 8125.1"
 xmlns:xlink="http://www.w3.org/1999/xlink">
 <defs>
  <style type="text/css">
   <![CDATA[
    .str0 {stroke:#393738;stroke-width:7.62;stroke-miterlimit:22.9256}
    .fil0 {fill:#41A65E}
    .fil3 {fill:#CD3539}
    .fil2 {fill:#FFF13C}
    .fil1 {fill:#CD3539;fill-rule:nonzero}
   ]]>
  </style>
 </defs>
 <g id="Camada_x0020_1">
  <metadata id="CorelCorpID_0Corel-Layer"/>
  <path class="fil0" d="M8901.91 69.81c2746.95,546.05 4735.6,2142.68 4735.6,4027.64 0,1884.97 -1988.65,3481.59 -4735.6,4027.65 1841.79,-677.55 3129.27,-2225.76 3129.27,-4027.65 0,-1801.88 -1287.48,-3350.1 -3129.27,-4027.64zm-4166.31 8055.29c-2746.95,-546.06 -4735.6,-2142.68 -4735.6,-4027.65 0,-1884.96 1988.65,-3481.59 4735.6,-4027.64 -1841.79,677.54 -3129.27,2225.76 -3129.27,4027.64 0,1801.89 1287.48,3350.1 3129.27,4027.65z"/>
  <path class="fil1 str0" d="M4715.65 3137.95c-30.98,175.75 -105.41,336.6 -223.78,483.16 -122.04,151.2 -251.65,236.6 -387.98,256.07 -74.44,10.64 -184.88,24.35 -332.17,41.29 -146.88,16.86 -257.32,30.58 -330.93,41.09 -42.65,6.1 -106.58,17.29 -192.22,33.65 -85.63,16.34 -149.57,27.53 -190.98,33.45 -27.18,3.88 -37.95,-8.99 -32.65,-39.07 19.82,-112.41 54.62,-282.01 104.28,-508.26 49.77,-226.8 84.56,-396.4 104.38,-508.81 20.65,-117.16 55.6,-340.8 104.74,-670.39 12.56,-85.13 30.39,-211.67 53.56,-380.12l2.56 -21.46c2.52,-23.51 15.02,-36.61 36.76,-39.72l839.72 -119.96c205.74,-29.4 359.06,-1.91 459.64,81.98 47.98,39.97 80.77,103.7 98.04,190.75 16.52,82.01 16.87,167.88 0.87,258.65 -12.75,72.31 -51.47,160.15 -116.17,263.55 -65.21,103.97 -96.49,149.6 -94.54,138.51 -1.48,8.44 6.55,20.68 23.19,37.33 84.9,82.54 109.5,225.13 73.68,428.31zm-557.58 -749.65c14.23,-80.75 -42.25,-111.78 -169.38,-93.62 -28.86,4.12 -47.49,15.01 -55.81,32.15 -3.82,7.76 -9.81,34.84 -18,81.29 -8,45.39 -11.26,73.12 -9.69,82.67 4.04,16.4 21.7,22.62 52.64,18.2 122.53,-17.51 189.16,-57.89 200.24,-120.69zm-96.91 785.54c14.98,-84.97 -52.01,-116.55 -200.88,-95.29 -34.71,4.96 -56.18,15.74 -65.57,32 -3.63,6.7 -10.09,36.43 -19.3,88.68 -9.12,51.72 -12.43,82.03 -9.92,90.94 5.06,15.21 25.74,20.5 61.7,15.36 67.32,-9.62 111.18,-17.94 132.42,-25.1 58.79,-21.26 92.8,-56.98 101.55,-106.59z"/>
  <path class="fil1 str0" d="M5856.21 2496.78c-7.9,67.13 -22.49,168.25 -43.79,303.37 -21.24,134.69 -35.84,235.81 -43.73,302.94 -6.93,58.95 -15.26,147.16 -25.06,265.07 -9.75,117.47 -18.09,205.69 -25.02,264.64 -3.04,25.82 -10.08,42.6 -20.81,50.35 -7.04,5.16 -21.55,7.74 -43.55,7.74 -21.65,0 -53.99,-1.29 -97.39,-3.44 -43.4,-2.15 -75.78,-3.01 -97.44,-3.01 -24.03,0 -59.86,2.58 -108.52,7.74 -48.27,4.74 -84.1,7.32 -107.11,7.32 -12.52,0 -17.61,-25.82 -14.64,-77.03 2.69,-51.64 -0.03,-77.45 -7.81,-77.45 6.09,0 -26.62,24.95 -97.8,74.87 -71.18,49.92 -137.05,74.87 -197.97,74.87 -170.2,0 -260.91,-100.69 -271.7,-302.5 -5.06,-103.71 2.31,-238.4 21.88,-404.93 26.21,-222.9 59.26,-389 99.19,-498.29 12.5,-34.43 31.1,-51.64 55.47,-51.64 19.29,0 48.24,1.29 87.19,3.87 38.95,2.58 68.24,3.87 88.2,3.87 22.33,0 55.88,-0.43 101,-1.29 44.77,-0.86 78.99,-1.29 102,-1.29 25.72,0 36.7,15.92 32.96,47.77 -4.86,41.31 -14.61,104.13 -29.25,188.47 -14.66,84.34 -24.46,147.6 -29.42,189.77 -25.9,220.32 -15.16,330.48 32.56,330.48 37.56,0 59.24,-23.24 64.65,-69.28l69.2 -588.67c5.05,-43.03 15.11,-71 29.78,-83.48 12.33,-9.89 35.94,-15.06 71.13,-15.06l369.53 0c28.43,0 40.51,18.07 36.27,54.22z"/>
  <path class="fil1 str0" d="M6897.86 6629.78c-8.68,37.15 -22.46,55.42 -41.82,55.42 -27.88,0 -68.6,-3.16 -122.31,-8.83 -54.07,-5.67 -94.6,-8.17 -121.77,-8.17 -28.57,0 -71.28,2.5 -128.52,7.54 -57.6,5.04 -99.97,7.57 -127.83,7.57 -20.74,0 -25.65,-22.68 -15.05,-68.03 19.27,-82.5 51.44,-207.2 96.38,-373.47 45.11,-166.9 77.13,-290.97 96.4,-373.49 11.47,-49.12 10.13,-76.83 -4.37,-83.13 -22.99,-10.71 -67.87,-16.38 -135.17,-16.38 -67.61,0 -116.17,5.67 -145.17,16.38 -17.45,6.3 -32.06,34.01 -43.54,83.13 -19.26,82.52 -46.21,206.59 -81.09,373.49 -34.75,166.27 -61.83,290.97 -81.11,373.47 -10.57,45.35 -26.07,68.03 -46.79,68.03 -28.55,0 -70.78,-2.53 -126.7,-7.57 -55.91,-5.04 -98.13,-7.54 -126.68,-7.54 -25.81,0 -65.49,2.5 -118.65,7.54 -53.17,5.04 -92.83,7.57 -118.66,7.57 -22.08,0 -28.85,-17.64 -20.47,-53.53 31.34,-134.17 81.8,-335.71 151.25,-604.01 69.58,-268.92 120.06,-470.46 151.38,-604.61 33.23,-142.33 80.32,-357.1 140.99,-643.04 60.64,-285.93 107.59,-500.07 140.98,-643.03 6.32,-27.1 17.23,-40.31 33.2,-40.31 27.86,0 69.06,2.51 123.63,7.54 54.9,5.04 96.1,7.57 123.94,7.57 29.59,0 74.68,-2.53 134.8,-8.2 60.11,-5.67 105.34,-8.81 134.91,-8.81 10.54,0 13.03,12.6 7.29,37.15 -19.4,83.15 -53.58,209.11 -102.22,376.64 -48.77,168.16 -82.8,293.49 -102.35,377.26 -4.87,20.78 -1.84,34.01 8.88,39.05 24.98,9.44 76.82,14.47 155.99,14.47 73.73,0 124.17,-5.03 151.88,-14.47 18.42,-7.57 32.15,-31.49 41.56,-71.8 18.1,-77.46 42.61,-193.99 73.33,-348.92 30.73,-154.91 344.08,-1349.37 362.16,-1426.83 9.11,-39.03 19.1,-58.57 29.64,-58.57 27.86,0 69.44,2.51 125.32,7.55 55.89,5.04 97.8,7.56 126.35,7.56 27.86,0 70.27,-2.52 127.01,-6.93 56.4,-4.38 98.31,-6.3 125.49,-6.3 17.34,0 22.43,14.5 15.53,44.09 -33.38,142.95 -375.14,1434.41 -447.57,1718.43 -72.57,284.68 -125.52,498.18 -158.9,641.16 -31.19,133.52 -74.85,335.06 -130.71,603.35 -56,268.93 -99.51,469.84 -130.84,604.01z"/>
  <path class="fil1 str0" d="M8132.14 5950.42c-3.2,29.64 -10.9,69.45 -22.9,119.85 -16.85,71.15 -26.13,110.96 -28.14,119.85 -10.11,57.17 -27.5,140.6 -52.28,251.13 -4.68,19.06 -15.12,28.38 -31.38,28.38 -5.25,0 -12.19,-1.27 -21.1,-3.81 -88.11,-19.48 -206.91,-29.22 -355.88,-29.22 -41.17,0 -102.46,1.69 -184.39,5.08 -81.67,3.39 -142.95,5.08 -183.34,5.08 -17.05,0 -24.16,-11.86 -21.56,-36 10.01,-92.74 28.15,-231.65 54.5,-417.57 26.31,-185.49 44.49,-324.82 54.5,-417.57 10.15,-94.02 26.22,-269.77 48.5,-527.26 5.82,-66.06 13.58,-164.74 23.86,-296.45l1.09 -17.36c1.01,-19.06 8.3,-28.38 22.21,-28.38 39.86,0 99.73,1.7 179.62,5.09 79.62,3.38 139.8,4.66 180.19,4.66 40.65,0 101.9,-1.28 184.08,-4.66 82.19,-3.39 144.01,-5.09 184.92,-5.09 28.59,0 43.62,21.18 44.6,63.11 0.83,16.51 -2.04,89.35 -8.28,217.68 -6.29,128.74 -10.26,202 -12.22,220.22 -1.78,16.51 -8.21,24.98 -18.96,24.98 -27.54,0 -68.73,-4.66 -123.59,-13.97 -54.86,-9.32 -96.58,-13.98 -124.64,-13.98 -45.63,0 -71.9,0.42 -78.55,1.27 -40.77,5.93 -62.57,23.29 -65.72,52.52 -4.3,39.8 16.87,64.79 63.55,74.53 13.1,2.54 45.75,3.81 97.94,3.81 43.01,0 84.81,-3.39 124.88,-10.16 53.36,-8.47 75.06,-12.71 65.36,-12.71 13.38,0 18.65,11.86 16.05,36 -2.51,23.29 -8.71,58.87 -18.38,107.15 -12.65,58.86 -19.77,95.71 -21.9,110.53 -18.52,110.96 -30.48,190.15 -35.55,237.16 -1.97,18.21 -10.84,27.53 -26.84,27.53 4.73,0 -17.02,-5.08 -65.28,-14.82 -53.92,-10.59 -116.58,-15.67 -188.44,-15.67 -46.68,0 -72.26,20.75 -76.7,61.83 -2.14,19.9 -0.55,34.3 4.52,43.19 12.8,19.91 88.86,29.65 228.12,29.65 18.88,0 47.48,-2.54 85.79,-7.62 38.32,-5.09 66.65,-7.63 85.8,-7.63 12.85,0 18.09,9.74 15.94,29.65z"/>
  <path class="fil1 str0" d="M9156.76 6302.07c-0.95,8.89 -8.24,13.13 -22.13,13.13 -22.56,0 -55.73,-1.27 -99.68,-4.66 -43.96,-3.39 -77.08,-5.08 -99.12,-5.08 -21.5,0 -53.42,1.69 -96,5.08 -42.6,3.39 -74.51,5.08 -95.49,5.08 -17.31,0 -27.75,-10.16 -31.28,-30.92 -5.2,-36.84 -12.5,-93.17 -21.99,-168.13 -9.73,-67.76 -22.76,-170.67 -39.38,-308.3 -2.93,-36 -7.26,-54.21 -13.03,-54.21 -4.46,0 -8.02,13.55 -10.99,41.08 -6.03,55.9 -11.71,140.18 -17.01,252.4 -5.33,112.66 -10.83,195.24 -16.54,248.18 -2.01,18.63 -8.31,28.37 -18.54,28.37 -3.41,0 -9.83,-1.27 -18.73,-3.81 -43.01,-9.74 -109.08,-14.82 -198.25,-14.82 -19.4,0 -48.96,1.69 -88.67,5.08 -39.44,3.39 -68.99,5.08 -88.4,5.08 -17.05,0 -24.16,-11.86 -21.55,-36 10,-92.74 28.14,-231.65 54.5,-417.57 26.3,-185.49 44.48,-324.82 54.49,-417.57 25.5,-236.31 48.04,-510.74 67.64,-823.71l1.09 -17.36c0.73,-16.52 6.72,-25.83 17.75,-28.38 -1.05,0 8.65,0 29.11,0 55.86,0 140.18,-1.27 252.96,-3.81 112.79,-2.54 197.37,-3.81 253.76,-3.81 119.85,0 214.03,41.08 283.05,123.24 80.07,96.56 110.31,236.74 90.48,420.54 -12.85,119 -34.23,215.13 -63.82,287.55 -29.62,72.84 -76.71,142.3 -141.33,208.79 -13.83,13.97 -21.33,27.53 -22.74,40.65 -1.1,10.17 18.85,119.43 59.83,327.79 40.98,208.36 61.02,316.78 60.01,326.1zm-315.39 -1101.95c10.05,-93.17 -27.41,-139.75 -112.38,-139.75 -20.98,0 -37.05,51.66 -48.15,154.57 -1.33,12.28 -2.81,30.92 -4.46,55.91 -1.61,24.56 -3.09,43.19 -4.41,55.47 -1.33,12.29 8.47,18.64 29.46,18.64 82.87,0 129.52,-48.28 139.94,-144.84z"/>
  <path class="fil1 str0" d="M10127.03 5917.65c-3.19,29.64 -10.9,69.45 -22.89,119.85 -16.86,71.15 -26.14,110.96 -28.14,119.85 -10.11,57.17 -27.51,140.6 -52.28,251.13 -4.68,19.06 -15.13,28.38 -31.39,28.38 -5.24,0 -12.19,-1.27 -21.1,-3.81 -88.11,-19.48 -206.91,-29.22 -355.87,-29.22 -41.18,0 -102.46,1.69 -184.39,5.08 -81.67,3.39 -142.96,5.08 -183.35,5.08 -17.05,0 -24.16,-11.86 -21.55,-36 10,-92.74 28.14,-231.65 54.5,-417.57 26.31,-185.49 44.49,-324.82 54.49,-417.57 10.15,-94.02 26.23,-269.77 48.51,-527.26 5.81,-66.06 13.57,-164.74 23.85,-296.45l1.09 -17.36c1.01,-19.06 8.31,-28.38 22.21,-28.38 39.86,0 99.74,1.7 179.62,5.09 79.63,3.38 139.81,4.66 180.19,4.66 40.66,0 101.9,-1.28 184.09,-4.66 82.19,-3.39 144.01,-5.09 184.92,-5.09 28.58,0 43.61,21.18 44.59,63.11 0.84,16.51 -2.04,89.35 -8.28,217.68 -6.29,128.74 -10.25,202 -12.22,220.22 -1.78,16.51 -8.2,24.98 -18.96,24.98 -27.53,0 -68.73,-4.66 -123.59,-13.97 -54.85,-9.32 -96.57,-13.98 -124.63,-13.98 -45.64,0 -71.91,0.42 -78.56,1.27 -40.76,5.93 -62.57,23.29 -65.72,52.52 -4.29,39.8 16.88,64.79 63.55,74.53 13.1,2.54 45.75,3.81 97.94,3.81 43.01,0 84.81,-3.39 124.88,-10.16 53.37,-8.47 75.07,-12.71 65.36,-12.71 13.38,0 18.66,11.86 16.05,36 -2.51,23.29 -8.71,58.87 -18.38,107.15 -12.65,58.86 -19.77,95.71 -21.89,110.53 -18.53,110.96 -30.49,190.15 -35.56,237.16 -1.96,18.21 -10.83,27.53 -26.84,27.53 4.73,0 -17.02,-5.08 -65.27,-14.82 -53.93,-10.59 -116.59,-15.67 -188.45,-15.67 -46.68,0 -72.26,20.75 -76.69,61.83 -2.15,19.9 -0.56,34.3 4.52,43.19 12.8,19.91 88.85,29.65 228.11,29.65 18.88,0 47.48,-2.54 85.79,-7.62 38.32,-5.09 66.65,-7.63 85.8,-7.63 12.85,0 18.09,9.74 15.94,29.65z"/>
  <path class="fil1 str0" d="M6980.5 2783.36c-20.01,170.41 -37.39,277.98 -51.76,322.31 -18.36,55.51 -117.81,225.34 -297.77,509.48 -92.54,146.13 -1708.74,2244.73 -1925.51,2241.91l-455.07 -5.91c-74.23,-0.97 1717.98,-2180.49 1770.89,-2236.86 14.9,-15.87 22.13,-27.1 22.86,-33.14 0.59,-5.15 -3.57,-12.9 -12.06,-24.08 -21.8,-27.55 -59.53,-109.73 -113.21,-246.15 -53.39,-135.97 -81.92,-224.19 -85.06,-263.78 -0.88,-9.89 1.41,-37.86 6.73,-83.06 6.11,-52.06 16,-130.37 29.97,-234.93 13.94,-104.14 24.17,-182.46 30.28,-234.53 3.29,-27.97 19.12,-41.75 47.54,-41.75 23.7,0 59.36,1.73 106.66,5.17 47.66,3.44 83.32,5.17 107.02,5.17 23.01,0 57.72,-1.73 104.15,-5.17 46.42,-3.44 81.14,-5.17 104.15,-5.17 17.25,0 23.9,15.5 20.2,46.91 -4.09,34.85 -11.61,87.35 -22.62,157.92 -11,70.57 -18.62,123.93 -22.76,159.22 -22.42,190.63 -12.96,285.73 28.34,285.73 48.03,0 87.24,-129.09 117.59,-387.28 2.88,-24.53 5.78,-60.68 8.68,-108.44 2.92,-47.77 5.76,-83.49 8.55,-107.15 3.68,-31.41 14.31,-46.91 32.24,-46.91 21.3,0 52.58,1.73 94.14,5.17 41.56,3.44 72.48,5.17 93.13,5.17 25.72,0 64.49,-1.73 116.34,-5.17 52.17,-3.44 90.96,-5.17 116.66,-5.17 21.34,0 33.92,13.78 37.75,41.75 5.58,41.74 -0.33,138.12 -18.05,288.74z"/>
  <path class="fil2" d="M9739.48 0c2746.95,546.06 4735.6,2142.68 4735.6,4027.65 0,1884.96 -1988.65,3481.59 -4735.6,4027.64 1841.79,-677.54 3129.27,-2225.76 3129.27,-4027.64 0,-1801.89 -1287.48,-3350.1 -3129.27,-4027.65zm-4166.31 8055.29c-2746.95,-546.05 -4735.6,-2142.68 -4735.6,-4027.64 0,-1884.97 1988.65,-3481.59 4735.6,-4027.65 -1841.79,677.55 -3129.27,2225.76 -3129.27,4027.65 0,1801.88 1287.48,3350.1 3129.27,4027.64z"/>
  <path class="fil3 str0" d="M10907.22 1064.34c-481.63,-95.2 -3382.49,-908.86 -3544.31,-834.71 -124.59,78.16 22.51,369.49 71.3,530.77l529.87 1729.71c75.52,175.76 370.72,193.99 603.15,251.6 203.77,50.52 2005,470.25 2127.4,546.01l42.25 34.44c-27.36,125.87 -68.96,77.49 -238.78,32.28l-1689.81 -420.61c-231.82,-58.38 -484.58,-170.55 -390.82,136.24 148.3,106.79 2279.73,644.02 2524.91,645.4 156.23,-67.99 172.68,-2443.18 274.76,-2705.49 118.33,-304.08 879.04,238.31 942.17,-7.87 81.53,-317.93 -959.22,-368.91 -959.58,-368.84 -236.57,50.58 -236.45,178.67 -292.51,431.07zm-406.41 559.16l354.28 88.49 33.59 -367.98 -506.72 -129.42 118.85 408.91zm-450.67 550.44l351.21 88.9 -146.07 -422.85 -337.23 -80.27c29.58,135.39 76.76,303.4 132.09,414.22zm-427.87 554.53l327.4 76.08 -119.16 -408.22 -369 -97.34c15.93,132.93 51.46,345.86 160.76,429.48zm-1838.78 -1781.41l361.96 95.1 -116.83 -408.88 -377.53 -96.95c19.43,134.26 61.77,299.94 132.4,410.73zm202.97 713.88l365.12 94.82c1.15,-127.18 -50.57,-277.89 -115.94,-405.15l-369.69 -102.18 120.51 412.51zm2267.86 1220.49l382.63 95.65 -120.45 -408.17 -381.41 -101.59 119.23 414.11zm-2054.51 -514.98l386.34 102.79 -126.46 -417.18 -375 -92.12 115.12 406.51zm688.83 174.76l379.53 98.54 -121.64 -415.41 -372.47 -95.32 114.58 412.19zm468.06 -540.09l370.5 92.66 -135.08 -411.17 -352.25 -94.63 116.83 413.14zm506.71 -532.96l332.42 82.4 -115.95 -403.14 -376.83 -103.34c14.41,89.97 36.04,155.7 57.92,230.2 34.28,116.77 21.76,129.6 102.44,193.88zm-729.61 -181.56l374.82 93.1 -115.83 -409.65 -374.6 -94.54 115.61 411.09zm-683.84 -173.45l381.29 97.51 -119.94 -405.15 -375.45 -96.92 114.1 404.56zm220.57 716.17l368.35 95.28 -102.51 -397.79 -383.55 -110.06 117.71 412.57zm2168.41 564.44l-128.16 -35.44 -168.12 -476.85 311.1 84.31 -14.82 427.98zm-6.69 570.94l-119.23 -350.38 140.74 38.15 -21.51 312.23z"/>
  <path class="fil3 str0" d="M8335.63 3226.6c-492.51,108.6 -161.03,817.16 286.9,768.92 490.36,-52.81 201.42,-876.58 -286.9,-768.92z"/>
  <path class="fil3 str0" d="M10753.75 3804.82c-497.05,16.06 -298.25,771.36 203.43,781.81 474.2,9.87 315.98,-798.58 -203.43,-781.81z"/>
 </g>
</svg>
